Coordinates
version=1
nRows=16
nColumns=40
inDegrees=yes

Units are S.I. units (second, meters, Newtons, ...)
If the header above contains a line with 'inDegrees', this indicates whether rotational values are in degrees (yes) or radians (no).

endheader
time	pelvis_tilt	pelvis_list	pelvis_rotation	pelvis_tx	pelvis_ty	pelvis_tz	hip_flexion_r	hip_adduction_r	hip_rotation_r	knee_angle_r	knee_angle_r_beta	ankle_angle_r	subtalar_angle_r	mtp_angle_r	hip_flexion_l	hip_adduction_l	hip_rotation_l	knee_angle_l	knee_angle_l_beta	ankle_angle_l	subtalar_angle_l	mtp_angle_l	lumbar_extension	lumbar_bending	lumbar_rotation	arm_flex_r	arm_add_r	arm_rot_r	elbow_flex_r	pro_sup_r	wrist_flex_r	wrist_dev_r	arm_flex_l	arm_add_l	arm_rot_l	elbow_flex_l	pro_sup_l	wrist_flex_l	wrist_dev_l
      0.83000000	     -5.61371573	    -11.74687535	     83.08686781	      0.18039242	      0.95476675	      0.32788181	     27.01060975	     -4.66238011	      0.44432779	     63.42397296	      1.10695715	     -1.04750197	      0.00000000	      0.00000000	     22.53395318	      6.39080708	     -2.78355395	     18.25087711	      0.31853790	      3.57910980	      0.00000000	      0.00000000	      3.30138754	     -5.59930426	      6.44572513	      0.00000000	      0.00000000	      0.00000000	      0.00000000	      0.00000000	      0.00000000	      0.00000000	      0.00000000	      0.00000000	      0.00000000	      0.00000000	      0.00000000	      0.00000000	      0.00000000
      0.84000000	     -5.01715504	    -12.20813229	     83.00610264	      0.18060202	      0.95761028	      0.30801170	     29.43913848	     -3.64905309	      0.25870738	     61.81794084	      1.07892660	      0.87054433	      0.00000000	      0.00000000	     20.73273975	      5.92789008	     -2.44227129	     16.54006935	      0.28867867	      3.67511552	      0.00000000	      0.00000000	      3.76798519	     -4.67627709	      6.26665591	      0.00000000	      0.00000000	      0.00000000	      0.00000000	      0.00000000	      0.00000000	      0.00000000	      0.00000000	      0.00000000	      0.00000000	      0.00000000	      0.00000000	      0.00000000	      0.00000000
      0.85000000	     -4.45575007	    -12.65471569	     83.00924061	      0.18078508	      0.95976545	      0.28809801	     31.66888514	     -2.73389018	     -0.04216517	     59.73246899	      1.04252825	      2.37296038	      0.00000000	      0.00000000	     18.95285003	      5.52014525	     -2.10838330	     14.86101425	      0.25937363	      3.72651767	      0.00000000	      0.00000000	      4.20138861	     -3.82894678	      5.97366232	      0.00000000	      0.00000000	      0.00000000	      0.00000000	      0.00000000	      0.00000000	      0.00000000	      0.00000000	      0.00000000	      0.00000000	      0.00000000	      0.00000000	      0.00000000	      0.00000000
      0.86000000	     -3.93452041	    -12.98194256	     83.16619448	      0.18082033	      0.96132315	      0.26800580	     33.57622702	     -1.98506195	     -0.49010659	     57.20924719	      0.99848973	      3.43555180	      0.00000000	      0.00000000	     17.07257697	      5.21176634	     -1.73595045	     13.20804723	      0.23052391	      3.74505458	      0.00000000	      0.00000000	      4.48529334	     -3.08417124	      5.50127959	      0.00000000	      0.00000000	      0.00000000	      0.00000000	      0.00000000	      0.00000000	      0.00000000	      0.00000000	      0.00000000	      0.00000000	      0.00000000	      0.00000000	      0.00000000	      0.00000000
      0.87000000	     -3.47939723	    -13.34720363	     83.38956898	      0.18076408	      0.96198066	      0.24793062	     35.37673130	     -1.37240129	     -1.01365025	     54.29992811	      0.94771253	      4.12521249	      0.00000000	      0.00000000	     15.31998219	      4.97532491	     -1.39499761	     11.68730142	      0.20398189	      3.81112198	      0.00000000	      0.00000000	      4.80659876	     -2.44257646	      5.08615623	      0.00000000	      0.00000000	      0.00000000	      0.00000000	      0.00000000	      0.00000000	      0.00000000	      0.00000000	      0.00000000	      0.00000000	      0.00000000	      0.00000000	      0.00000000	      0.00000000
      0.88000000	     -3.10115881	    -13.53134782	     83.73949518	      0.18051212	      0.96203838	      0.22770286	     36.81836452	     -0.99049962	     -1.68189514	     51.02912314	      0.89062621	      4.48583637	      0.00000000	      0.00000000	     13.40482650	      4.86990585	     -1.01661313	     10.20368563	      0.17808791	      3.89982400	      0.00000000	      0.00000000	      4.91060215	     -1.93129548	      4.47227333	      0.00000000	      0.00000000	      0.00000000	      0.00000000	      0.00000000	      0.00000000	      0.00000000	      0.00000000	      0.00000000	      0.00000000	      0.00000000	      0.00000000	      0.00000000	      0.00000000
      0.89000000	     -2.80378521	    -13.69746196	     84.19165709	      0.18013211	      0.96124402	      0.20745274	     38.10356010	     -0.77582400	     -2.41763374	     47.44464631	      0.82806529	      4.64588040	      0.00000000	      0.00000000	     11.55622490	      4.84969680	     -0.64145810	      8.86507931	      0.15472482	      4.01823477	      0.00000000	      0.00000000	      4.99006762	     -1.55542750	      3.88382198	      0.00000000	      0.00000000	      0.00000000	      0.00000000	      0.00000000	      0.00000000	      0.00000000	      0.00000000	      0.00000000	      0.00000000	      0.00000000	      0.00000000	      0.00000000	      0.00000000
      0.90000000	     -2.60207976	    -13.60737496	     84.70943568	      0.17962751	      0.95994305	      0.18705331	     38.98870187	     -0.79806813	     -3.31940114	     43.59714129	      0.76091366	      4.63758625	      0.00000000	      0.00000000	      9.44166442	      4.95587220	     -0.17433896	      7.54208805	      0.13163427	      4.17024810	      0.00000000	      0.00000000	      4.76039939	     -1.32529256	      3.13585591	      0.00000000	      0.00000000	      0.00000000	      0.00000000	      0.00000000	      0.00000000	      0.00000000	      0.00000000	      0.00000000	      0.00000000	      0.00000000	      0.00000000	      0.00000000	      0.00000000
      0.91000000	     -2.47159872	    -13.46576745	     85.32273517	      0.17901683	      0.95788468	      0.16660215	     39.69844887	     -0.97783446	     -4.34878927	     39.52187089	      0.68978677	      4.55110378	      0.00000000	      0.00000000	      7.32242203	      5.11150817	      0.35302585	      6.32800317	      0.11044449	      4.34485306	      0.00000000	      0.00000000	      4.47168190	     -1.20782594	      2.40692637	      0.00000000	      0.00000000	      0.00000000	      0.00000000	      0.00000000	      0.00000000	      0.00000000	      0.00000000	      0.00000000	      0.00000000	      0.00000000	      0.00000000	      0.00000000	      0.00000000
      0.92000000	     -2.40717212	    -13.22842932	     86.00600756	      0.17834813	      0.95519539	      0.14607277	     40.19557443	     -1.29944095	     -5.54904742	     35.26847587	      0.61555103	      4.39576377	      0.00000000	      0.00000000	      5.13323316	      5.30003331	      0.98585022	      5.20987039	      0.09092939	      4.55747489	      0.00000000	      0.00000000	      4.06818801	     -1.18691461	      1.65218978	      0.00000000	      0.00000000	      0.00000000	      0.00000000	      0.00000000	      0.00000000	      0.00000000	      0.00000000	      0.00000000	      0.00000000	      0.00000000	      0.00000000	      0.00000000	      0.00000000
      0.93000000	     -2.42665183	    -12.83321790	     86.72023602	      0.17769259	      0.95200204	      0.12546244	     40.44643287	     -1.72516093	     -6.80612118	     30.93994218	      0.54000386	      4.33304337	      0.00000000	      0.00000000	      2.76229683	      5.52317797	      1.74523159	      4.09323030	      0.07144035	      4.79665579	      0.00000000	      0.00000000	      3.47152109	     -1.27827867	      0.87951118	      0.00000000	      0.00000000	      0.00000000	      0.00000000	      0.00000000	      0.00000000	      0.00000000	      0.00000000	      0.00000000	      0.00000000	      0.00000000	      0.00000000	      0.00000000	      0.00000000
      0.94000000	     -2.50451073	    -12.40709633	     87.44833884	      0.17712553	      0.94823607	      0.10477345	     40.59442188	     -2.18593204	     -8.09554366	     26.60074398	      0.46427057	      4.31685273	      0.00000000	      0.00000000	      0.38811957	      5.73033109	      2.59452040	      3.08302443	      0.05380893	      5.07805415	      0.00000000	      0.00000000	      2.84121765	     -1.43829675	      0.14594980	      0.00000000	      0.00000000	      0.00000000	      0.00000000	      0.00000000	      0.00000000	      0.00000000	      0.00000000	      0.00000000	      0.00000000	      0.00000000	      0.00000000	      0.00000000	      0.00000000
      0.95000000	     -2.63666777	    -11.94484306	     88.15529839	      0.17673646	      0.94397590	      0.08402223	     40.66212645	     -2.62095408	     -9.22366742	     22.37321613	      0.39048629	      4.39863580	      0.00000000	      0.00000000	     -2.00189521	      5.90898380	      3.51865612	      2.16412213	      0.03777106	      5.38383824	      0.00000000	      0.00000000	      2.16705609	     -1.65856834	     -0.53760195	      0.00000000	      0.00000000	      0.00000000	      0.00000000	      0.00000000	      0.00000000	      0.00000000	      0.00000000	      0.00000000	      0.00000000	      0.00000000	      0.00000000	      0.00000000	      0.00000000
      0.96000000	     -2.81695386	    -11.48947818	     88.78956270	      0.17659640	      0.93927111	      0.06314104	     40.71099070	     -2.98267862	     -9.99976746	     18.38192076	      0.32082504	      4.56823833	      0.00000000	      0.00000000	     -4.35636989	      6.05841227	      4.41670558	      1.34719820	      0.02351304	      5.72778648	      0.00000000	      0.00000000	      1.51406058	     -1.92383228	     -1.11551077	     -0.00000000	     -0.00000000	     -0.00000000	      0.00000000	      0.00000000	      0.00000000	      0.00000000	     -0.00000000	     -0.00000000	      0.00000000	      0.00000000	      0.00000000	     -0.00000000	      0.00000000
      0.97000000	     -3.08899854	    -11.19419646	     89.25659133	      0.17684985	      0.93400423	      0.04217504	     40.92545263	     -3.24330891	    -10.05019802	     14.75327457	      0.25749322	      4.85113058	      0.00000000	      0.00000000	     -6.43485527	      6.24458053	      5.07081525	      0.77124031	      0.01346068	      6.14824335	      0.00000000	      0.00000000	      1.07387697	     -2.28047334	     -1.57857500	      0.00000000	      0.00000000	      0.00000000	      0.00000000	      0.00000000	      0.00000000	      0.00000000	      0.00000000	      0.00000000	      0.00000000	      0.00000000	      0.00000000	      0.00000000	      0.00000000
      0.98000000	     -3.38867577	    -10.88338205	     89.54584757	      0.17742676	      0.92858158	      0.02101765	     41.11322471	     -3.39431280	     -9.40584783	     11.63732939	      0.20310971	      5.15407922	      0.00000000	      0.00000000	     -8.48942694	      6.43826328	      5.55346534	      0.30389752	      0.00530401	      6.50497810	      0.00000000	      0.00000000	      0.62988479	     -2.63824090	     -1.78774313	      0.00000000	      0.00000000	      0.00000000	      0.00000000	      0.00000000	      0.00000000	      0.00000000	      0.00000000	      0.00000000	      0.00000000	      0.00000000	      0.00000000	      0.00000000	      0.00000000
